<svg id="ic_facebook" xmlns="http://www.w3.org/2000/svg" width="30.309" height="30.309" viewBox="0 0 30.309 30.309">
  <defs>
    <style>
      .cls-1 {
        fill: #4cbffb;
      }
    </style>
  </defs>
  <path id="Path_7" data-name="Path 7" class="cls-1" d="M291.235,508.668q-.189.031-.38.057Q291.046,508.7,291.235,508.668Zm0,0" transform="translate(-273.637 -478.556)"/>
  <path id="Path_8" data-name="Path 8" class="cls-1" d="M299.521,507.793l-.181.032Zm0,0" transform="translate(-281.619 -477.733)"/>
  <path id="Path_9" data-name="Path 9" class="cls-1" d="M278.055,510.34q-.222.025-.446.044Q277.833,510.365,278.055,510.34Zm0,0" transform="translate(-261.176 -480.129)"/>
  <path id="Path_10" data-name="Path 10" class="cls-1" d="M286.659,509.738l-.214.027Zm0,0" transform="translate(-269.489 -479.563)"/>
  <path id="Path_11" data-name="Path 11" class="cls-1" d="M306.824,506.41l-.16.034Zm0,0" transform="translate(-288.51 -476.432)"/>
  <path id="Path_12" data-name="Path 12" class="cls-1" d="M324.613,502.113l-.129.036Zm0,0" transform="translate(-305.276 -472.389)"/>
  <path id="Path_13" data-name="Path 13" class="cls-1" d="M319.2,503.543l-.141.037Zm0,0" transform="translate(-300.172 -473.735)"/>
  <path id="Path_14" data-name="Path 14" class="cls-1" d="M312.216,505.254l-.149.034Zm0,0" transform="translate(-293.593 -475.344)"/>
  <path id="Path_15" data-name="Path 15" class="cls-1" d="M273.72,511.09l-.24.018Zm0,0" transform="translate(-257.291 -480.835)"/>
  <path id="Path_16" data-name="Path 16" class="cls-1" d="M30.309,15.154A15.154,15.154,0,1,0,15.154,30.309c.089,0,.178,0,.266,0v-11.8H12.165V14.714h3.256V11.922c0-3.238,1.977-5,4.866-5a26.8,26.8,0,0,1,2.919.149v3.384H21.213c-1.572,0-1.876.747-1.876,1.843v2.417H23.1l-.49,3.794H19.338V29.723A15.163,15.163,0,0,0,30.309,15.154Zm0,0"/>
  <path id="Path_17" data-name="Path 17" class="cls-1" d="M265.366,511.43q-.237.015-.475.024Q265.129,511.446,265.366,511.43Zm0,0" transform="translate(-249.21 -481.155)"/>
  <path id="Path_18" data-name="Path 18" class="cls-1" d="M260.756,511.836l-.252.006Zm0,0" transform="translate(-245.083 -481.537)"/>
</svg>
