<svg xmlns="http://www.w3.org/2000/svg" width="30.309" height="29.046" viewBox="0 0 30.309 29.046">
  <defs>
    <style>
      .cls-1 {
        fill: #4cbffb;
      }
    </style>
  </defs>
  <path id="ic_github" class="cls-1" d="M15.154.5A15.023,15.023,0,0,0,0,15.392,14.917,14.917,0,0,0,10.362,29.521c.758.14,1.036-.321,1.036-.716,0-.354-.013-1.291-.019-2.532-4.215.9-5.1-2-5.1-2A3.97,3.97,0,0,0,4.588,22.1c-1.373-.923.106-.9.106-.9a3.17,3.17,0,0,1,2.321,1.534,3.263,3.263,0,0,0,4.414,1.239,3.153,3.153,0,0,1,.96-1.992c-3.366-.373-6.9-1.653-6.9-7.359a5.69,5.69,0,0,1,1.56-4,5.21,5.21,0,0,1,.133-3.941s1.269-.4,4.167,1.527a14.53,14.53,0,0,1,7.577,0c2.879-1.926,4.149-1.527,4.149-1.527a5.354,5.354,0,0,1,.152,3.941,5.713,5.713,0,0,1,1.553,4c0,5.721-3.542,6.98-6.914,7.346a3.534,3.534,0,0,1,1.023,2.756c0,1.993-.019,3.594-.019,4.078,0,.39.265.856,1.042.707a14.871,14.871,0,0,0,10.4-14.11A15.026,15.026,0,0,0,15.154.5Z" transform="translate(0 -0.5)"/>
</svg>
