<svg id="ic_heart" xmlns="http://www.w3.org/2000/svg" width="30.309" height="30.309" viewBox="0 0 30.309 30.309">
  <defs>
    <style>
      .cls-1 {
        fill: #4cbffb;
      }
    </style>
  </defs>
  <g id="Group_4" data-name="Group 4">
    <g id="Group_3" data-name="Group 3">
      <path id="Path_20" data-name="Path 20" class="cls-1" d="M86.4,99.378l-.989.989a.787.787,0,0,1-.723.212.757.757,0,0,1-.422-.212l-.988-.988a3.4,3.4,0,0,0-4.8,0,3.471,3.471,0,0,0,.029,4.83,83.641,83.641,0,0,0,6.331,5.636,83.759,83.759,0,0,0,6.332-5.636,3.471,3.471,0,0,0,.028-4.83A3.4,3.4,0,0,0,86.4,99.378Z" transform="translate(-69.684 -88.446)"/>
      <path id="Path_21" data-name="Path 21" class="cls-1" d="M15.154,0A15.154,15.154,0,1,0,30.309,15.154,15.154,15.154,0,0,0,15.154,0Zm7.5,16.813c-1.716,1.906-6.774,6.023-6.989,6.2a.756.756,0,0,1-.512.176h-.017a.783.783,0,0,1-.5-.176c-.215-.174-5.273-4.292-6.988-6.2A5.022,5.022,0,0,1,7.683,9.82a4.971,4.971,0,0,1,7.022,0l.449.449.45-.45a4.972,4.972,0,0,1,7.023,0A5.023,5.023,0,0,1,22.655,16.813Z"/>
    </g>
  </g>
</svg>
