<svg id="ic_instagram" xmlns="http://www.w3.org/2000/svg" width="30.309" height="30.309" viewBox="0 0 30.309 30.309">
  <defs>
    <style>
      .cls-1 {
        fill: #4cbffb;
      }
    </style>
  </defs>
  <path id="Path_4" data-name="Path 4" class="cls-1" d="M212.8,209.9a2.9,2.9,0,1,1-2.9-2.9A2.9,2.9,0,0,1,212.8,209.9Zm0,0" transform="translate(-194.746 -194.746)"/>
  <path id="Path_5" data-name="Path 5" class="cls-1" d="M149.4,137.49a2.882,2.882,0,0,0-1.652-1.652,4.815,4.815,0,0,0-1.616-.3c-.918-.042-1.193-.051-3.516-.051s-2.6.009-3.516.051a4.818,4.818,0,0,0-1.616.3,2.883,2.883,0,0,0-1.652,1.652,4.816,4.816,0,0,0-.3,1.616c-.042.918-.051,1.193-.051,3.516s.009,2.6.051,3.516a4.814,4.814,0,0,0,.3,1.616,2.882,2.882,0,0,0,1.652,1.652,4.809,4.809,0,0,0,1.616.3c.918.042,1.192.051,3.516.051s2.6-.009,3.516-.051a4.809,4.809,0,0,0,1.616-.3,2.882,2.882,0,0,0,1.652-1.652,4.819,4.819,0,0,0,.3-1.616c.042-.918.051-1.193.051-3.516s-.009-2.6-.051-3.516A4.809,4.809,0,0,0,149.4,137.49Zm-6.784,9.6a4.468,4.468,0,1,1,4.468-4.468A4.468,4.468,0,0,1,142.619,147.091Zm4.645-8.069a1.044,1.044,0,1,1,1.044-1.044A1.044,1.044,0,0,1,147.264,139.022Zm0,0" transform="translate(-127.464 -127.468)"/>
  <path id="Path_6" data-name="Path 6" class="cls-1" d="M15.154,0A15.154,15.154,0,1,0,30.309,15.154,15.156,15.156,0,0,0,15.154,0ZM23.8,18.742a6.384,6.384,0,0,1-.4,2.112A4.45,4.45,0,0,1,20.855,23.4a6.389,6.389,0,0,1-2.112.4c-.928.042-1.224.052-3.588.052s-2.66-.01-3.588-.052a6.389,6.389,0,0,1-2.112-.4A4.449,4.449,0,0,1,6.91,20.854a6.383,6.383,0,0,1-.4-2.112c-.043-.928-.053-1.225-.053-3.588s.01-2.66.052-3.588a6.385,6.385,0,0,1,.4-2.112A4.452,4.452,0,0,1,9.454,6.909a6.39,6.39,0,0,1,2.112-.4c.928-.042,1.224-.052,3.588-.052s2.66.01,3.588.053a6.392,6.392,0,0,1,2.112.4A4.451,4.451,0,0,1,23.4,9.454a6.384,6.384,0,0,1,.4,2.112c.042.928.052,1.224.052,3.588S23.847,17.814,23.8,18.742Zm0,0"/>
</svg>
