<svg xmlns="http://www.w3.org/2000/svg" width="30.309" height="30.309" viewBox="0 0 30.309 30.309">
  <defs>
    <style>
      .cls-1 {
        fill: #4cbffb;
      }
    </style>
  </defs>
  <g id="ic_location" transform="translate(-0.001)">
    <g id="Group_2" data-name="Group 2" transform="translate(0.001)">
      <g id="Group_1" data-name="Group 1">
        <circle id="Ellipse_1" data-name="Ellipse 1" class="cls-1" cx="2.44" cy="2.44" r="2.44" transform="translate(12.759 8.731)"/>
        <path id="Path_19" data-name="Path 19" class="cls-1" d="M15.155,0A15.155,15.155,0,1,0,30.31,15.154,15.155,15.155,0,0,0,15.155,0Zm-.031,6.939h.063a4.726,4.726,0,0,1,4.631,4.7c0,3.123-3.336,6.285-4.662,7.418-.089-.076-.187-.161-.292-.255l0,0c-1.467-1.3-4.365-4.248-4.365-7.158A4.726,4.726,0,0,1,15.124,6.939Zm.1,16.526c-2.795,0-5.624-.8-5.624-2.334,0-1.075,1.393-1.79,3.189-2.121.347.349.676.657.965.914-1.957.219-3.106.838-3.106,1.207,0,.453,1.737,1.286,4.576,1.286s4.576-.833,4.576-1.286c0-.376-1.2-1.011-3.226-1.218.291-.26.623-.571.973-.924,1.85.322,3.3,1.044,3.3,2.142C20.846,22.663,18.016,23.465,15.221,23.465Z" transform="translate(-0.001)"/>
      </g>
    </g>
  </g>
</svg>
