<svg xmlns="http://www.w3.org/2000/svg" width="30.309" height="30.309" viewBox="0 0 30.309 30.309">
  <defs>
    <style>
      .cls-1 {
        fill: #4cbffb;
      }
    </style>
  </defs>
  <path id="ic_twitter" class="cls-1" d="M15.154,0A15.154,15.154,0,1,0,30.309,15.154,15.156,15.156,0,0,0,15.154,0Zm6.919,11.816q.01.224.01.45a9.83,9.83,0,0,1-9.9,9.9h0A9.846,9.846,0,0,1,6.855,20.6a7.074,7.074,0,0,0,.83.048,6.979,6.979,0,0,0,4.32-1.489,3.482,3.482,0,0,1-3.25-2.416,3.467,3.467,0,0,0,1.571-.06,3.479,3.479,0,0,1-2.791-3.41c0-.016,0-.03,0-.044a3.454,3.454,0,0,0,1.575.435A3.481,3.481,0,0,1,8.035,9.02a9.876,9.876,0,0,0,7.17,3.634,3.48,3.48,0,0,1,5.927-3.172,6.977,6.977,0,0,0,2.209-.844,3.492,3.492,0,0,1-1.53,1.924,6.937,6.937,0,0,0,2-.548,7.069,7.069,0,0,1-1.735,1.8Zm0,0"/>
</svg>
