<svg xmlns="http://www.w3.org/2000/svg" width="30.309" height="30.309" viewBox="0 0 30.309 30.309">
  <defs>
    <style>
      .cls-1 {
        fill: #4cbffb;
      }
    </style>
  </defs>
  <path id="ic_telegram" class="cls-1" d="M15.154,30.309A15.154,15.154,0,1,0,0,15.154,15.152,15.152,0,0,0,15.154,30.309ZM6.934,14.826,21.546,9.192c.678-.245,1.27.165,1.051,1.191h0L20.11,22.1c-.184.831-.678,1.033-1.369.642l-3.789-2.792-1.827,1.76a.955.955,0,0,1-.764.373l.269-3.856,7.022-6.343c.306-.269-.068-.421-.471-.153L10.5,17.2,6.763,16.03c-.812-.258-.83-.812.172-1.2Z"/>
</svg>
