<svg xmlns="http://www.w3.org/2000/svg" width="1366.001" height="198.239" viewBox="0 0 1366.001 198.239">
  <path id="wavetop" d="M1266.311,283.238c-9.943,0-19.814-.454-29.336-1.352a282.764,282.764,0,0,1-31.613-4.775,261.97,261.97,0,0,1-33.133-9.272,252.951,252.951,0,0,1-33.9-14.845c-7.594-4.054-15.347-8.684-23.7-14.157-7.442-4.875-15.194-10.312-23.7-16.622-15.8-11.721-31.864-24.751-47.4-37.353l0,0h0c-21.772-17.661-44.286-35.924-66.43-50.87a305.5,305.5,0,0,0-33.216-19.78c-5.651-2.852-11.239-5.371-16.608-7.486a152.872,152.872,0,0,0-16.608-5.506,134.44,134.44,0,0,0-17.949-3.57,141,141,0,0,0-17.949-1.136,158.853,158.853,0,0,0-20.161,1.324,191.49,191.49,0,0,0-20.161,3.742,273.55,273.55,0,0,0-40.321,13.357c-12.057,4.958-25.247,11.135-40.321,18.884-13.438,6.908-27.1,14.4-40.313,21.644l-.008,0C703.5,160.943,693.171,166.6,683,171.983c-15.694,8.377-29.587,15.349-42.473,21.314-15.175,7.025-29.068,12.723-42.474,17.421-30.852,10.811-58.639,16.066-84.948,16.067a186.541,186.541,0,0,1-28.886-2.224,179.675,179.675,0,0,1-28.886-7.045,216.47,216.47,0,0,1-24.151-9.692c-7.584-3.544-15.484-7.652-24.15-12.559-16.1-9.118-32.471-19.682-48.3-29.9-21.478-13.862-43.688-28.2-65.533-39.111a226.923,226.923,0,0,0-32.766-13.587,153.421,153.421,0,0,0-16.383-4.257,123.806,123.806,0,0,0-16.383-2.168c-2.427-.152-4.909-.229-7.378-.229a134.432,134.432,0,0,0-27.4,2.94A174.467,174.467,0,0,0,166,117a233.512,233.512,0,0,0-25.976,11.989c-8.03,4.294-16.327,9.264-24.66,14.772A452.511,452.511,0,0,0,71.6,177.012c-12.857,10.941-24.116,21.454-33.66,30.45L0,242.844V85H1366V273.2l-37.945,5.027c-8.142,1.16-17.072,2.366-27.194,3.32C1288.812,282.685,1277.51,283.238,1266.311,283.238Z" transform="translate(0.001 -85)" fill="#232323"/>
</svg>
